<svg width="191" height="38" viewBox="0 0 191 38" fill="none" xmlns="http://www.w3.org/2000/svg">
<path d="M20.872 0.927998C23.816 0.927998 26.12 1.824 27.784 3.616C29.448 5.408 30.28 7.92533 30.28 11.168V36H20.168V12.896C20.168 11.1893 19.8907 10.016 19.336 9.376C18.824 8.69333 18.0347 8.352 16.968 8.352C14.92 8.352 12.9573 9.824 11.08 12.768V36H0.968V2.016H9.8L10.504 6.048C11.9547 4.34133 13.512 3.06133 15.176 2.208C16.8827 1.35467 18.7813 0.927998 20.872 0.927998ZM67.5375 18.336C67.5375 19.744 67.4735 20.96 67.3455 21.984H46.2895C46.6308 24.8427 47.4415 26.848 48.7215 28C50.0015 29.152 51.7722 29.728 54.0335 29.728C55.3988 29.728 56.7215 29.4933 58.0015 29.024C59.2815 28.512 60.6682 27.744 62.1615 26.72L66.3215 32.352C62.3535 35.5093 57.9375 37.088 53.0735 37.088C47.5695 37.088 43.3455 35.4667 40.4015 32.224C37.4575 28.9813 35.9855 24.6293 35.9855 19.168C35.9855 15.712 36.6042 12.6187 37.8415 9.888C39.0788 7.11467 40.8922 4.93866 43.2815 3.36C45.6708 1.73866 48.5295 0.927998 51.8575 0.927998C56.7642 0.927998 60.6042 2.464 63.3775 5.536C66.1508 8.608 67.5375 12.8747 67.5375 18.336ZM57.6175 15.456C57.5322 10.2507 55.6975 7.648 52.1135 7.648C50.3642 7.648 48.9988 8.288 48.0175 9.568C47.0788 10.848 46.5028 12.96 46.2895 15.904H57.6175V15.456ZM87.938 0.927998C93.1433 0.927998 97.218 2.528 100.162 5.728C103.106 8.88533 104.578 13.3227 104.578 19.04C104.578 22.6667 103.895 25.8453 102.53 28.576C101.207 31.264 99.2873 33.3547 96.77 34.848C94.2953 36.3413 91.3513 37.088 87.938 37.088C82.7753 37.088 78.7007 35.5093 75.714 32.352C72.77 29.152 71.298 24.6933 71.298 18.976C71.298 15.3493 71.9593 12.192 73.282 9.504C74.6473 6.77333 76.5673 4.66133 79.042 3.168C81.5593 1.67466 84.5247 0.927998 87.938 0.927998ZM87.938 8.352C85.89 8.352 84.354 9.22667 83.33 10.976C82.306 12.6827 81.794 15.3493 81.794 18.976C81.794 22.688 82.2847 25.3973 83.266 27.104C84.29 28.8107 85.8473 29.664 87.938 29.664C89.986 29.664 91.522 28.8107 92.546 27.104C93.57 25.3547 94.082 22.6667 94.082 19.04C94.082 15.328 93.57 12.6187 92.546 10.912C91.5647 9.20533 90.0287 8.352 87.938 8.352Z" fill="#3D3D3D"/>
<path d="M125.313 0.927998C127.66 0.927998 129.772 1.26933 131.649 1.952C133.526 2.63467 135.297 3.68 136.961 5.088L132.609 11.104C130.476 9.48267 128.321 8.672 126.145 8.672C123.884 8.672 122.177 9.504 121.025 11.168C119.873 12.832 119.297 15.52 119.297 19.232C119.297 22.816 119.873 25.3547 121.025 26.848C122.177 28.3413 123.841 29.088 126.017 29.088C127.169 29.088 128.214 28.9173 129.153 28.576C130.092 28.192 131.222 27.5947 132.545 26.784L136.961 33.056C133.59 35.744 129.772 37.088 125.505 37.088C122.049 37.088 119.062 36.3627 116.545 34.912C114.028 33.4187 112.086 31.3493 110.721 28.704C109.356 26.016 108.673 22.88 108.673 19.296C108.673 15.712 109.356 12.5333 110.721 9.76C112.086 6.98667 114.028 4.832 116.545 3.296C119.062 1.71733 121.985 0.927998 125.313 0.927998ZM159.65 1.056C160.887 1.056 162.018 1.20533 163.042 1.504L161.442 11.296C160.162 10.9973 159.138 10.848 158.37 10.848C156.365 10.848 154.829 11.552 153.762 12.96C152.738 14.3253 151.927 16.3947 151.33 19.168V36H141.218V2.016H150.05L150.882 8.608C151.65 6.26133 152.802 4.42667 154.338 3.104C155.917 1.73867 157.687 1.056 159.65 1.056ZM190.217 2.016V9.12L174.857 28.32H190.537L189.641 36H163.145V28.832L178.569 9.632H164.489V2.016H190.217Z" fill="#141414"/>
</svg>
