<svg width="125" height="28" viewBox="0 0 125 28" fill="none" xmlns="http://www.w3.org/2000/svg">
<path d="M15.904 0.695998C18.112 0.695998 19.84 1.368 21.088 2.712C22.336 4.056 22.96 5.944 22.96 8.376V27H15.376V9.672C15.376 8.392 15.168 7.512 14.752 7.032C14.368 6.52 13.776 6.264 12.976 6.264C11.44 6.264 9.968 7.368 8.56 9.576V27H0.976V1.512H7.6L8.128 4.536C9.216 3.256 10.384 2.296 11.632 1.656C12.912 1.016 14.336 0.695998 15.904 0.695998ZM50.9031 13.752C50.9031 14.808 50.8551 15.72 50.7591 16.488H34.9671C35.2231 18.632 35.8311 20.136 36.7911 21C37.7511 21.864 39.0791 22.296 40.7751 22.296C41.7991 22.296 42.7911 22.12 43.7511 21.768C44.7111 21.384 45.7511 20.808 46.8711 20.04L49.9911 24.264C47.0151 26.632 43.7031 27.816 40.0551 27.816C35.9271 27.816 32.7591 26.6 30.5511 24.168C28.3431 21.736 27.2391 18.472 27.2391 14.376C27.2391 11.784 27.7031 9.464 28.6311 7.416C29.5591 5.336 30.9191 3.704 32.7111 2.52C34.5031 1.304 36.6471 0.695998 39.1431 0.695998C42.8231 0.695998 45.7031 1.848 47.7831 4.152C49.8631 6.456 50.9031 9.656 50.9031 13.752ZM43.4631 11.592C43.3991 7.688 42.0231 5.736 39.3351 5.736C38.0231 5.736 36.9991 6.216 36.2631 7.176C35.5591 8.136 35.1271 9.72 34.9671 11.928H43.4631V11.592ZM66.2035 0.695998C70.1075 0.695998 73.1635 1.896 75.3715 4.296C77.5795 6.664 78.6835 9.992 78.6835 14.28C78.6835 17 78.1715 19.384 77.1475 21.432C76.1555 23.448 74.7155 25.016 72.8275 26.136C70.9715 27.256 68.7635 27.816 66.2035 27.816C62.3315 27.816 59.2755 26.632 57.0355 24.264C54.8275 21.864 53.7235 18.52 53.7235 14.232C53.7235 11.512 54.2195 9.144 55.2115 7.128C56.2355 5.08 57.6755 3.496 59.5315 2.376C61.4195 1.256 63.6435 0.695998 66.2035 0.695998ZM66.2035 6.264C64.6675 6.264 63.5155 6.92 62.7475 8.232C61.9795 9.512 61.5955 11.512 61.5955 14.232C61.5955 17.016 61.9635 19.048 62.6995 20.328C63.4675 21.608 64.6355 22.248 66.2035 22.248C67.7395 22.248 68.8915 21.608 69.6595 20.328C70.4275 19.016 70.8115 17 70.8115 14.28C70.8115 11.496 70.4275 9.464 69.6595 8.184C68.9235 6.904 67.7715 6.264 66.2035 6.264Z" fill="#3D3D3D"/>
<path d="M94.2348 0.695998C95.9948 0.695998 97.5788 0.951999 98.9868 1.464C100.395 1.976 101.723 2.76 102.971 3.816L99.7068 8.328C98.1068 7.112 96.4908 6.504 94.8588 6.504C93.1628 6.504 91.8828 7.128 91.0188 8.376C90.1548 9.624 89.7228 11.64 89.7228 14.424C89.7228 17.112 90.1548 19.016 91.0188 20.136C91.8828 21.256 93.1308 21.816 94.7628 21.816C95.6268 21.816 96.4108 21.688 97.1148 21.432C97.8188 21.144 98.6668 20.696 99.6588 20.088L102.971 24.792C100.443 26.808 97.5788 27.816 94.3788 27.816C91.7868 27.816 89.5468 27.272 87.6588 26.184C85.7708 25.064 84.3148 23.512 83.2908 21.528C82.2668 19.512 81.7548 17.16 81.7548 14.472C81.7548 11.784 82.2668 9.4 83.2908 7.32C84.3148 5.24 85.7708 3.624 87.6588 2.472C89.5468 1.288 91.7388 0.695998 94.2348 0.695998ZM124.116 1.512V6.84L112.596 21.24H124.356L123.684 27H103.812V21.624L115.38 7.224H104.82V1.512H124.116Z" fill="#141414"/>
</svg>
